<svg xmlns="http://www.w3.org/2000/svg" xmlns:xlink="http://www.w3.org/1999/xlink" width="816" zoomAndPan="magnify" viewBox="0 0 612 791.999994" height="1056" preserveAspectRatio="xMidYMid meet" version="1.0"><defs><clipPath id="46ec33369b"><path d="M 0 566.214844 L 612 566.214844 L 612 792 L 0 792 Z M 0 566.214844 " clip-rule="nonzero"/></clipPath><clipPath id="6918e2af4d"><path d="M 439.347656 730.800781 L 457.347656 730.800781 L 457.347656 748.800781 L 439.347656 748.800781 Z M 439.347656 730.800781 " clip-rule="nonzero"/></clipPath><clipPath id="4d9fa05a64"><path d="M 439.347656 754.523438 L 457.347656 754.523438 L 457.347656 772.523438 L 439.347656 772.523438 Z M 439.347656 754.523438 " clip-rule="nonzero"/></clipPath><clipPath id="77885ec981"><path d="M 0 0 L 612 0 L 612 194.625 L 0 194.625 Z M 0 0 " clip-rule="nonzero"/></clipPath></defs><rect x="-61.2" width="734.4" fill="#ffffff" y="-79.199999" height="950.399992" fill-opacity="1"/><rect x="-61.2" width="734.4" fill="#ffffff" y="-79.199999" height="950.399992" fill-opacity="1"/><g clip-path="url(#46ec33369b)"><path fill="#5090f8" d="M 611.664062 566.570312 L 611.664062 801 L 0.335938 801 L 0.335938 574.367188 C 48.089844 586.769531 93.542969 606.082031 134.207031 631.511719 C 167.875 652.507812 201.277344 678.558594 242.296875 680.773438 C 281.105469 682.988281 316.71875 663.140625 351.007812 646.394531 C 425.429688 609.980469 605.640625 565.773438 611.664062 566.570312 Z M 611.664062 566.570312 " fill-opacity="1" fill-rule="nonzero"/></g><path fill="#549bea" d="M 611.664062 612.195312 L 611.664062 801 L 0.335938 801 L 0.335938 660.75 C 28.421875 657.117188 58.28125 662.609375 85.480469 671.824219 C 124.550781 685.023438 161.054688 705.402344 200.65625 717.097656 C 271.890625 738.09375 349.324219 729.234375 419.761719 705.757812 C 487.449219 683.253906 549.820312 647.902344 611.664062 612.195312 Z M 611.664062 612.195312 " fill-opacity="1" fill-rule="nonzero"/><g clip-path="url(#6918e2af4d)"><path fill="#ffffff" d="M 453.222656 740.621094 C 453.214844 740.621094 453.210938 740.621094 453.203125 740.621094 C 453.042969 740.621094 452.90625 740.496094 452.894531 740.332031 C 452.824219 739.082031 452.308594 737.890625 451.445312 736.984375 C 450.585938 736.074219 449.425781 735.496094 448.179688 735.355469 C 448.011719 735.335938 447.890625 735.183594 447.910156 735.015625 C 447.925781 734.847656 448.082031 734.722656 448.25 734.742188 C 449.636719 734.902344 450.933594 735.546875 451.894531 736.558594 C 452.855469 737.574219 453.429688 738.898438 453.511719 740.296875 C 453.519531 740.464844 453.390625 740.613281 453.222656 740.621094 Z M 448.097656 736.96875 C 448.117188 736.796875 448.269531 736.679688 448.4375 736.695312 C 449.265625 736.789062 450.035156 737.175781 450.609375 737.777344 C 451.179688 738.382812 451.523438 739.171875 451.570312 740.003906 C 451.582031 740.171875 451.453125 740.316406 451.28125 740.328125 C 451.277344 740.328125 451.269531 740.328125 451.265625 740.328125 C 451.101562 740.328125 450.964844 740.203125 450.957031 740.039062 C 450.917969 739.351562 450.632812 738.699219 450.160156 738.203125 C 449.6875 737.703125 449.050781 737.386719 448.367188 737.308594 C 448.199219 737.289062 448.078125 737.136719 448.097656 736.96875 Z M 452.726562 744.59375 C 452.71875 744.605469 452.359375 744.941406 452.351562 744.953125 C 451.6875 745.589844 450.648438 745.714844 449.78125 745.511719 C 449.46875 745.4375 449.160156 745.332031 448.863281 745.203125 C 447.523438 744.621094 446.253906 743.589844 445.230469 742.507812 C 444.203125 741.429688 443.242188 740.105469 442.734375 738.738281 C 442.621094 738.433594 442.53125 738.121094 442.476562 737.800781 C 442.320312 736.929688 442.5 735.894531 443.171875 735.269531 C 443.183594 735.257812 443.539062 734.921875 443.546875 734.910156 C 444.214844 734.328125 444.78125 735.070312 445.3125 735.636719 C 445.765625 736.125 446.527344 736.925781 446.398438 737.65625 C 446.332031 738.0625 445.898438 738.359375 445.75 738.757812 C 445.558594 739.265625 445.648438 739.769531 445.96875 740.207031 C 446.183594 740.496094 446.445312 740.804688 446.722656 741.09375 C 446.996094 741.386719 447.292969 741.664062 447.570312 741.894531 C 447.988281 742.238281 448.488281 742.355469 449.003906 742.191406 C 449.410156 742.0625 449.730469 741.648438 450.136719 741.601562 C 450.875 741.511719 451.632812 742.316406 452.09375 742.792969 C 452.636719 743.355469 453.34375 743.960938 452.726562 744.59375 Z M 448.382812 730.796875 C 443.394531 730.796875 439.347656 734.84375 439.347656 739.832031 C 439.347656 744.820312 443.394531 748.867188 448.382812 748.867188 C 453.371094 748.867188 457.417969 744.820312 457.417969 739.832031 C 457.417969 734.84375 453.371094 730.796875 448.382812 730.796875 " fill-opacity="1" fill-rule="nonzero"/></g><g clip-path="url(#4d9fa05a64)"><path fill="#ffffff" d="M 457.417969 763.558594 C 457.417969 764.152344 457.359375 764.738281 457.246094 765.320312 C 457.128906 765.902344 456.957031 766.46875 456.730469 767.015625 C 456.503906 767.5625 456.226562 768.085938 455.894531 768.578125 C 455.566406 769.070312 455.191406 769.527344 454.773438 769.949219 C 454.351562 770.367188 453.894531 770.742188 453.402344 771.070312 C 452.910156 771.402344 452.390625 771.679688 451.839844 771.90625 C 451.292969 772.132812 450.726562 772.304688 450.144531 772.421875 C 449.5625 772.535156 448.976562 772.59375 448.382812 772.59375 C 447.789062 772.59375 447.203125 772.535156 446.621094 772.421875 C 446.039062 772.304688 445.472656 772.132812 444.925781 771.90625 C 444.378906 771.679688 443.855469 771.402344 443.363281 771.070312 C 442.871094 770.742188 442.414062 770.367188 441.996094 769.949219 C 441.574219 769.527344 441.199219 769.070312 440.871094 768.578125 C 440.542969 768.085938 440.261719 767.5625 440.035156 767.015625 C 439.808594 766.46875 439.636719 765.902344 439.523438 765.320312 C 439.40625 764.738281 439.347656 764.152344 439.347656 763.558594 C 439.347656 762.964844 439.40625 762.378906 439.523438 761.796875 C 439.636719 761.214844 439.808594 760.648438 440.035156 760.101562 C 440.261719 759.554688 440.542969 759.03125 440.871094 758.539062 C 441.199219 758.046875 441.574219 757.589844 441.996094 757.167969 C 442.414062 756.75 442.871094 756.375 443.363281 756.046875 C 443.855469 755.714844 444.378906 755.4375 444.925781 755.210938 C 445.472656 754.984375 446.039062 754.8125 446.621094 754.695312 C 447.203125 754.582031 447.789062 754.523438 448.382812 754.523438 C 448.976562 754.523438 449.5625 754.582031 450.144531 754.695312 C 450.726562 754.8125 451.292969 754.984375 451.839844 755.210938 C 452.390625 755.4375 452.910156 755.714844 453.402344 756.046875 C 453.894531 756.375 454.351562 756.75 454.773438 757.167969 C 455.191406 757.589844 455.566406 758.046875 455.894531 758.539062 C 456.226562 759.03125 456.503906 759.554688 456.730469 760.101562 C 456.957031 760.648438 457.128906 761.214844 457.246094 761.796875 C 457.359375 762.378906 457.417969 762.964844 457.417969 763.558594 Z M 457.417969 763.558594 " fill-opacity="1" fill-rule="nonzero"/></g><path fill="#50b2e9" d="M 442.710938 763.558594 C 442.710938 762.851562 442.839844 762.175781 443.078125 761.550781 L 445.363281 761.550781 C 445.261719 762.1875 445.207031 762.867188 445.207031 763.558594 C 445.207031 764.226562 445.257812 764.882812 445.351562 765.503906 L 443.054688 765.503906 C 442.832031 764.894531 442.710938 764.242188 442.710938 763.558594 Z M 445.910156 763.558594 C 445.910156 762.859375 445.964844 762.183594 446.074219 761.550781 L 448.003906 761.550781 L 448.003906 765.503906 L 446.0625 765.503906 C 445.960938 764.886719 445.910156 764.234375 445.910156 763.558594 Z M 450.015625 759.464844 C 450.210938 759.878906 450.371094 760.34375 450.492188 760.847656 L 448.707031 760.847656 L 448.707031 757.976562 C 449.183594 758.152344 449.648438 758.671875 450.015625 759.464844 Z M 448.003906 757.976562 L 448.003906 760.847656 L 446.21875 760.847656 C 446.34375 760.34375 446.503906 759.878906 446.695312 759.464844 C 447.066406 758.671875 447.527344 758.152344 448.003906 757.976562 Z M 448.003906 766.207031 L 448.003906 769.140625 C 447.527344 768.964844 447.066406 768.445312 446.695312 767.652344 C 446.496094 767.222656 446.332031 766.734375 446.203125 766.207031 Z M 448.707031 769.140625 L 448.707031 766.207031 L 450.507812 766.207031 C 450.382812 766.734375 450.21875 767.222656 450.015625 767.652344 C 449.648438 768.445312 449.183594 768.964844 448.707031 769.140625 Z M 448.707031 765.503906 L 448.707031 761.550781 L 450.640625 761.550781 C 450.746094 762.183594 450.804688 762.859375 450.804688 763.558594 C 450.804688 764.234375 450.75 764.886719 450.648438 765.503906 Z M 451.351562 761.550781 L 453.632812 761.550781 C 453.871094 762.175781 454.003906 762.851562 454.003906 763.558594 C 454.003906 764.242188 453.882812 764.894531 453.660156 765.503906 L 451.359375 765.503906 C 451.457031 764.882812 451.507812 764.226562 451.507812 763.558594 C 451.507812 762.867188 451.453125 762.1875 451.351562 761.550781 Z M 453.308594 760.847656 L 451.214844 760.847656 C 451.074219 760.234375 450.886719 759.667969 450.652344 759.167969 C 450.472656 758.78125 450.269531 758.449219 450.054688 758.171875 C 451.449219 758.613281 452.613281 759.582031 453.308594 760.847656 Z M 446.660156 758.171875 C 446.441406 758.449219 446.238281 758.78125 446.058594 759.167969 C 445.828125 759.667969 445.636719 760.234375 445.5 760.847656 L 443.402344 760.847656 C 444.097656 759.582031 445.261719 758.613281 446.660156 758.171875 Z M 443.371094 766.207031 L 445.484375 766.207031 C 445.625 766.84375 445.820312 767.433594 446.058594 767.949219 C 446.238281 768.335938 446.441406 768.667969 446.660156 768.945312 C 445.238281 768.496094 444.058594 767.5 443.371094 766.207031 Z M 450.054688 768.945312 C 450.269531 768.667969 450.472656 768.335938 450.652344 767.949219 C 450.894531 767.433594 451.085938 766.84375 451.230469 766.207031 L 453.34375 766.207031 C 452.652344 767.5 451.472656 768.496094 450.054688 768.945312 Z M 450.054688 768.945312 " fill-opacity="1" fill-rule="nonzero"/><path fill="#5090f8" d="M 611.4375 156.289062 L 611.4375 -9 L 0.5625 -9 L 0.5625 5.695312 C 20.039062 19.417969 39.429688 33.140625 58.90625 46.863281 C 87.945312 67.316406 118.3125 88.296875 150.890625 103.613281 C 178.777344 116.894531 208.171875 125.921875 239.511719 126.984375 C 270.851562 128.046875 302.105469 120.964844 333.355469 123.355469 C 383.996094 127.339844 427.996094 155.582031 475.453125 172.226562 C 521.046875 188.164062 580.628906 189.84375 611.4375 156.289062 Z M 611.4375 156.289062 " fill-opacity="1" fill-rule="nonzero"/><g clip-path="url(#77885ec981)"><path fill="#165d94" d="M 611.4375 30.839844 L 611.4375 -9 L 0.5625 -9 L 0.5625 194.003906 L 1.269531 194.714844 C 51.824219 136.015625 63.863281 126.542969 181.964844 158.148438 C 300.066406 189.753906 389.929688 45.625 512.191406 47.308594 C 545.480469 47.75 580.980469 48.546875 609.402344 32.167969 C 610.109375 31.726562 610.816406 31.371094 611.4375 30.839844 Z M 611.4375 30.839844 " fill-opacity="1" fill-rule="nonzero"/></g></svg>